# xmcd CD database file generated by OrangeCD 5.1
#
# Track frame offsets:
#	183
#	8725
#	18930
#	29900
#	39893
#	50270
#	60995
#	70600
#	83548
#	95998
#	106080
#	114505
#	124910
#	135598
#
# Disc length: 1957 seconds
#
# Revision: 0
# Processed by: cddbd v1.4PL0 Copyright (c) Steve Scherf et al.
# Submitted via: OrangeCD 5.1
#
DISCID=aa07a30e
DTITLE=Johnny Cash - The Country Greats
DYEAR=1989
DGENRE=
TTITLE0=The Wreck Of The Old 89
TTITLE1=Ballad Of A Teenage Queen
TTITLE2=I Heard That Lonesome Whistle
TTITLE3=Rock Island Line
TTITLE4=Goodbye Little Darlin'
TTITLE5=Train Of Love
TTITLE6=Down The Street To 301
TTITLE7=Folsom Prison Blues
TTITLE8=I Walk The Line
TTITLE9=Hey Porter
TTITLE10=Guess Things Happen That Way
TTITLE11=The Ways Of A Woman In Love
TTITLE12=There You Go
TTITLE13=Big River
EXTD=
EXTT0=
EXTT1=
EXTT2=
EXTT3=
EXTT4=
EXTT5=
EXTT6=
EXTT7=
EXTT8=
EXTT9=
EXTT10=
EXTT11=
EXTT12=
EXTT13=
PLAYORDER=
